<svg width="19" height="25" viewBox="0 0 19 25" fill="none" xmlns="http://www.w3.org/2000/svg">
<path fill-rule="evenodd" clip-rule="evenodd" d="M9.25926 24.0831C10.1987 24.0831 14.6726 18.4647 15.7758 16.675C17.4716 13.9239 18.5185 12.2964 18.5185 9.25926C18.5185 4.14551 14.373 0 9.25926 0C4.14551 0 0 4.14551 0 9.25926C0 12.3122 0.970113 13.9289 2.66023 16.675C3.83821 18.589 8.31977 24.0831 9.25926 24.0831ZM9.25926 13.8889C11.8161 13.8889 13.8889 11.8161 13.8889 9.25926C13.8889 6.70239 11.8161 4.62963 9.25926 4.62963C6.70239 4.62963 4.62963 6.70239 4.62963 9.25926C4.62963 11.8161 6.70239 13.8889 9.25926 13.8889Z" fill="#F52D56"/>
</svg>
