<svg width="278" height="278" viewBox="0 0 278 278" fill="none" xmlns="http://www.w3.org/2000/svg">
<mask id="mask0_0_384" style="mask-type:luminance" maskUnits="userSpaceOnUse" x="0" y="0" width="278" height="278">
<path fill-rule="evenodd" clip-rule="evenodd" d="M0 0.00012207H278V278H0V0.00012207Z" fill="white"/>
</mask>
<g mask="url(#mask0_0_384)">
<path fill-rule="evenodd" clip-rule="evenodd" d="M139 0.00012207C62.2326 0.00012207 0 62.2327 0 139C0 215.767 62.2326 278 139 278C215.767 278 278 215.767 278 139C278 62.2327 215.767 0.00012207 139 0.00012207Z" fill="#EFF3F9"/>
</g>
<path fill-rule="evenodd" clip-rule="evenodd" d="M105.924 231.359C95.9398 231.359 87.8457 223.265 87.8457 213.281C87.8457 203.297 95.9398 195.203 105.924 195.203C115.908 195.203 124.002 203.297 124.002 213.281C124.002 223.265 115.908 231.359 105.924 231.359Z" fill="white"/>
<path fill-rule="evenodd" clip-rule="evenodd" d="M69.3657 193.943C66.4516 193.943 64.0894 191.581 64.0894 188.666C64.0894 185.752 66.4516 183.389 69.3657 183.389C72.2807 183.389 74.6429 185.752 74.6429 188.666C74.6429 191.581 72.2807 193.943 69.3657 193.943Z" fill="white"/>
<path fill-rule="evenodd" clip-rule="evenodd" d="M155.908 220.314C153.966 220.314 152.392 218.739 152.392 216.797C152.392 214.855 153.966 213.281 155.908 213.281C157.85 213.281 159.424 214.855 159.424 216.797C159.424 218.739 157.85 220.314 155.908 220.314Z" fill="white"/>
<path fill-rule="evenodd" clip-rule="evenodd" d="M204.568 54.2927C202.626 54.2927 201.052 52.7187 201.052 50.7767C201.052 48.8347 202.626 47.2607 204.568 47.2607C206.51 47.2607 208.084 48.8347 208.084 50.7767C208.084 52.7187 206.51 54.2927 204.568 54.2927Z" fill="white"/>
<path fill-rule="evenodd" clip-rule="evenodd" d="M188.822 86.2388H196.695V85.5535C196.695 83.2403 194.82 81.365 192.506 81.365H169.908C167.595 81.365 165.72 83.2403 165.72 85.5535V152.351H183.282V91.7787C183.282 88.7191 185.762 86.2388 188.822 86.2388Z" fill="#E0E8F6"/>
<mask id="mask1_0_384" style="mask-type:luminance" maskUnits="userSpaceOnUse" x="0" y="0" width="278" height="278">
<path fill-rule="evenodd" clip-rule="evenodd" d="M0 278H278V0H0V278Z" fill="white"/>
</mask>
<g mask="url(#mask1_0_384)">
<path fill-rule="evenodd" clip-rule="evenodd" d="M141.945 152.35H161.151V94.561H141.945V152.35Z" fill="#D0DBF0"/>
<path fill-rule="evenodd" clip-rule="evenodd" d="M189.643 78.1881H172.772C172.127 78.1881 171.605 77.6659 171.605 77.0207V70.1751C171.605 69.5307 172.127 69.0077 172.772 69.0077H189.643C190.288 69.0077 190.81 69.5307 190.81 70.1751V77.0207C190.81 77.6659 190.288 78.1881 189.643 78.1881Z" fill="#E0E8F6"/>
<path fill-rule="evenodd" clip-rule="evenodd" d="M137.784 152.35H98.6836V53.9656C98.6836 51.8067 100.712 50.2223 102.808 50.7445L135.267 58.8419C136.746 59.2107 137.784 60.5388 137.784 62.063V152.35Z" fill="#D0DBF0"/>
<path fill-rule="evenodd" clip-rule="evenodd" d="M81.3511 152.35V118.344C81.3511 115.294 83.8225 112.822 86.8725 112.822H93.1363V152.35H81.3511Z" fill="#E0E8F6"/>
<path fill-rule="evenodd" clip-rule="evenodd" d="M179.821 145.878C179.011 145.878 178.354 145.221 178.354 144.411V92.791C178.354 91.9803 179.011 91.3247 179.821 91.3247C180.631 91.3247 181.287 91.9803 181.287 92.791V144.411C181.287 145.221 180.631 145.878 179.821 145.878Z" fill="#C0CBE2"/>
<path fill-rule="evenodd" clip-rule="evenodd" d="M171.684 145.878C170.874 145.878 170.218 145.221 170.218 144.411V92.791C170.218 91.9803 170.874 91.3247 171.684 91.3247C172.494 91.3247 173.15 91.9803 173.15 92.791V144.411C173.15 145.221 172.494 145.878 171.684 145.878Z" fill="#C0CBE2"/>
<path fill-rule="evenodd" clip-rule="evenodd" d="M130.369 73.5979H107.22C105.953 73.5979 104.926 72.5703 104.926 71.3032C104.926 70.0353 105.953 69.0077 107.22 69.0077H130.369C131.637 69.0077 132.664 70.0353 132.664 71.3032C132.664 72.5703 131.637 73.5979 130.369 73.5979Z" fill="#C1CAE7"/>
<path fill-rule="evenodd" clip-rule="evenodd" d="M130.369 83.6597H107.22C105.953 83.6597 104.926 82.632 104.926 81.365C104.926 80.0971 105.953 79.0695 107.22 79.0695H130.369C131.637 79.0695 132.664 80.0971 132.664 81.365C132.664 82.632 131.637 83.6597 130.369 83.6597Z" fill="#C1CAE7"/>
<path fill-rule="evenodd" clip-rule="evenodd" d="M130.369 93.7219H107.22C105.953 93.7219 104.926 92.6943 104.926 91.4264C104.926 90.1593 105.953 89.1317 107.22 89.1317H130.369C131.637 89.1317 132.664 90.1593 132.664 91.4264C132.664 92.6943 131.637 93.7219 130.369 93.7219Z" fill="#C1CAE7"/>
<path fill-rule="evenodd" clip-rule="evenodd" d="M130.369 103.784H107.22C105.953 103.784 104.926 102.756 104.926 101.489C104.926 100.221 105.953 99.1935 107.22 99.1935H130.369C131.637 99.1935 132.664 100.221 132.664 101.489C132.664 102.756 131.637 103.784 130.369 103.784Z" fill="#C1CAE7"/>
<path fill-rule="evenodd" clip-rule="evenodd" d="M130.369 113.846H107.22C105.953 113.846 104.926 112.818 104.926 111.551C104.926 110.283 105.953 109.255 107.22 109.255H130.369C131.637 109.255 132.664 110.283 132.664 111.551C132.664 112.818 131.637 113.846 130.369 113.846Z" fill="#C1CAE7"/>
<path fill-rule="evenodd" clip-rule="evenodd" d="M130.369 123.908H107.22C105.953 123.908 104.926 122.88 104.926 121.612C104.926 120.345 105.953 119.317 107.22 119.317H130.369C131.637 119.317 132.664 120.345 132.664 121.612C132.664 122.88 131.637 123.908 130.369 123.908Z" fill="#C1CAE7"/>
<path fill-rule="evenodd" clip-rule="evenodd" d="M130.369 133.969H107.22C105.953 133.969 104.926 132.942 104.926 131.675C104.926 130.407 105.953 129.379 107.22 129.379H130.369C131.637 129.379 132.664 130.407 132.664 131.675C132.664 132.942 131.637 133.969 130.369 133.969Z" fill="#C1CAE7"/>
<path fill-rule="evenodd" clip-rule="evenodd" d="M130.369 144.032H107.22C105.953 144.032 104.926 143.004 104.926 141.737C104.926 140.468 105.953 139.441 107.22 139.441H130.369C131.637 139.441 132.664 140.468 132.664 141.737C132.664 143.004 131.637 144.032 130.369 144.032Z" fill="#C1CAE7"/>
<path fill-rule="evenodd" clip-rule="evenodd" d="M72.3318 152.35H41.3564V91.2457C41.3564 88.4802 43.5981 86.2385 46.3637 86.2385H67.3253C70.0901 86.2385 72.3318 88.4802 72.3318 91.2457V152.35Z" fill="#E0E8F6"/>
<path fill-rule="evenodd" clip-rule="evenodd" d="M66.4674 99.4133H47.222C46.1437 99.4133 45.2695 98.5399 45.2695 97.4616V97.3877C45.2695 96.3095 46.1437 95.4353 47.222 95.4353H66.4674C67.5449 95.4353 68.4191 96.3095 68.4191 97.3877V97.4616C68.4191 98.5399 67.5449 99.4133 66.4674 99.4133Z" fill="#C1CAE7"/>
<path fill-rule="evenodd" clip-rule="evenodd" d="M66.4674 108.133H47.222C46.1437 108.133 45.2695 107.259 45.2695 106.181V106.107C45.2695 105.029 46.1437 104.155 47.222 104.155H66.4674C67.5449 104.155 68.4191 105.029 68.4191 106.107V106.181C68.4191 107.259 67.5449 108.133 66.4674 108.133Z" fill="#C1CAE7"/>
<path fill-rule="evenodd" clip-rule="evenodd" d="M66.4674 116.852H47.222C46.1437 116.852 45.2695 115.978 45.2695 114.9V114.826C45.2695 113.748 46.1437 112.874 47.222 112.874H66.4674C67.5449 112.874 68.4191 113.748 68.4191 114.826V114.9C68.4191 115.978 67.5449 116.852 66.4674 116.852Z" fill="#C1CAE7"/>
<path fill-rule="evenodd" clip-rule="evenodd" d="M66.4674 125.571H47.222C46.1437 125.571 45.2695 124.698 45.2695 123.619V123.546C45.2695 122.467 46.1437 121.593 47.222 121.593H66.4674C67.5449 121.593 68.4191 122.467 68.4191 123.546V123.619C68.4191 124.698 67.5449 125.571 66.4674 125.571Z" fill="#C1CAE7"/>
<path fill-rule="evenodd" clip-rule="evenodd" d="M66.4674 134.29H47.222C46.1437 134.29 45.2695 133.416 45.2695 132.339V132.265C45.2695 131.187 46.1437 130.312 47.222 130.312H66.4674C67.5449 130.312 68.4191 131.187 68.4191 132.265V132.339C68.4191 133.416 67.5449 134.29 66.4674 134.29Z" fill="#C1CAE7"/>
<path fill-rule="evenodd" clip-rule="evenodd" d="M66.4674 143.009H47.222C46.1437 143.009 45.2695 142.136 45.2695 141.058V140.984C45.2695 139.906 46.1437 139.032 47.222 139.032H66.4674C67.5449 139.032 68.4191 139.906 68.4191 140.984V141.058C68.4191 142.136 67.5449 143.009 66.4674 143.009Z" fill="#C1CAE7"/>
<path fill-rule="evenodd" clip-rule="evenodd" d="M223.07 155.124H185.155V94.5522C185.155 91.4926 187.635 89.0131 190.694 89.0131H217.53C220.59 89.0131 223.07 91.4926 223.07 94.5522V155.124Z" fill="#E0E8F6"/>
<path fill-rule="evenodd" clip-rule="evenodd" d="M216.291 102.187H191.933C190.835 102.187 189.945 101.297 189.945 100.198C189.945 99.1004 190.835 98.2094 191.933 98.2094H216.291C217.39 98.2094 218.281 99.1004 218.281 100.198C218.281 101.297 217.39 102.187 216.291 102.187Z" fill="#C1CAE7"/>
<path fill-rule="evenodd" clip-rule="evenodd" d="M216.291 110.907H191.933C190.835 110.907 189.945 110.016 189.945 108.917C189.945 107.819 190.835 106.929 191.933 106.929H216.291C217.39 106.929 218.281 107.819 218.281 108.917C218.281 110.016 217.39 110.907 216.291 110.907Z" fill="#C1CAE7"/>
<path fill-rule="evenodd" clip-rule="evenodd" d="M216.291 119.626H191.933C190.835 119.626 189.945 118.736 189.945 117.637C189.945 116.538 190.835 115.648 191.933 115.648H216.291C217.39 115.648 218.281 116.538 218.281 117.637C218.281 118.736 217.39 119.626 216.291 119.626Z" fill="#C1CAE7"/>
<path fill-rule="evenodd" clip-rule="evenodd" d="M90.7722 89.1314C87.7375 89.1314 85.2765 86.6712 85.2765 83.6365V73.5618H64.9351V82.7518H70.2572C73.4301 82.7518 76.002 85.3237 76.002 88.4966V152.351H79.0359V116.261C79.0359 112.893 81.7653 110.164 85.1326 110.164H93.136V89.1314H90.7722Z" fill="#D0DBF0"/>
<path fill-rule="evenodd" clip-rule="evenodd" d="M186.71 63.0571H175.705C175.06 63.0571 174.537 62.5348 174.537 61.8896V56.4694C174.537 55.8243 175.06 55.302 175.705 55.302H186.71C187.355 55.302 187.877 55.8243 187.877 56.4694V61.8896C187.877 62.5348 187.355 63.0571 186.71 63.0571Z" fill="#E0E8F6"/>
<path fill-rule="evenodd" clip-rule="evenodd" d="M183.283 53.1173H179.133V42.3324C179.133 41.8929 179.489 41.5361 179.928 41.5361H182.487C182.927 41.5361 183.283 41.8929 183.283 42.3324V53.1173Z" fill="#E0E8F6"/>
<path fill-rule="evenodd" clip-rule="evenodd" d="M193.575 162.521H71.5391C69.8165 162.521 68.4185 161.124 68.4185 159.4C68.4185 157.678 69.8165 156.279 71.5391 156.279H193.575C195.298 156.279 196.695 157.678 196.695 159.4C196.695 161.124 195.298 162.521 193.575 162.521Z" fill="#7E89A0"/>
<path fill-rule="evenodd" clip-rule="evenodd" d="M267.854 168.069C267.854 159.781 261.135 153.061 252.847 153.061H241.416H233.681H36.8584C34.4914 153.061 32.5727 151.143 32.5727 148.776C32.5727 146.409 34.4914 144.49 36.8584 144.49H38.1207V138.055H30.0121C21.7235 138.055 15.0049 144.773 15.0049 153.061C15.0049 161.35 21.7235 168.069 30.0121 168.069H237.84H248.561C250.929 168.069 252.847 169.988 252.847 172.354C252.847 174.721 250.929 176.64 248.561 176.64H240.538H219.442C217.664 176.64 216.223 178.081 216.223 179.858C216.223 181.636 217.664 183.076 219.442 183.076H253.024V183.067C261.23 182.971 267.854 176.297 267.854 168.069Z" fill="#919DB6"/>
<path fill-rule="evenodd" clip-rule="evenodd" d="M203.801 176.64H183.038C181.261 176.64 179.82 178.081 179.82 179.858C179.82 181.636 181.261 183.076 183.038 183.076H203.801C205.578 183.076 207.019 181.636 207.019 179.858C207.019 178.081 205.578 176.64 203.801 176.64Z" fill="#919DB6"/>
<path fill-rule="evenodd" clip-rule="evenodd" d="M106.932 207.959H163.979L174.825 232.063H96.4873L106.932 207.959Z" fill="#DCE3ED"/>
<path fill-rule="evenodd" clip-rule="evenodd" d="M96.4878 235.277H174.826V232.063H96.4878V235.277Z" fill="#B3C5D0"/>
<path fill-rule="evenodd" clip-rule="evenodd" d="M153.196 223.426H129.091C127.205 223.426 125.677 221.898 125.677 220.011C125.677 218.125 127.205 216.596 129.091 216.596H153.196C155.081 216.596 156.61 218.125 156.61 220.011C156.61 221.898 155.081 223.426 153.196 223.426Z" fill="#B3C5D0"/>
<path fill-rule="evenodd" clip-rule="evenodd" d="M139.151 152.683C115.887 152.683 97.6016 134.764 97.6016 111.967C97.6016 89.1673 115.886 71.2491 139.151 71.2491C162.415 71.2491 180.699 89.1673 180.699 111.967C180.699 134.764 162.414 152.683 139.151 152.683Z" fill="white"/>
<path fill-rule="evenodd" clip-rule="evenodd" d="M139.151 144.225C120.719 144.225 106.232 130.028 106.232 111.966C106.232 93.9035 120.719 79.707 139.151 79.707C157.582 79.707 172.069 93.9035 172.069 111.966C172.069 130.028 157.581 144.225 139.151 144.225ZM139.151 52.426C105.734 52.426 78.3955 79.2177 78.3955 111.966C78.3955 156.621 139.151 222.541 139.151 222.541C139.151 222.541 199.906 156.621 199.906 111.966C199.906 79.2177 172.568 52.426 139.151 52.426Z" fill="#F52D56"/>
</g>
</svg>
